<?xml version="1.0" encoding="UTF-8" standalone="no"?>
<svg
   xmlns:dc="http://purl.org/dc/elements/1.1/"
   xmlns:cc="http://creativecommons.org/ns#"
   xmlns:rdf="http://www.w3.org/1999/02/22-rdf-syntax-ns#"
   xmlns:svg="http://www.w3.org/2000/svg"
   xmlns="http://www.w3.org/2000/svg"
   id="SVGRoot"
   version="1.1"
   viewBox="0 0 59.894897 14.464971"
   height="14.464971mm"
   width="59.894897mm">
  <defs
     id="defs26" />
  <metadata
     id="metadata29">
    <rdf:RDF>
      <cc:Work
         rdf:about="">
        <dc:format>image/svg+xml</dc:format>
        <dc:type
           rdf:resource="http://purl.org/dc/dcmitype/StillImage" />
        <dc:title></dc:title>
      </cc:Work>
    </rdf:RDF>
  </metadata>
  <g
     transform="translate(-2.4711758,-18.767515)"
     id="layer1">
    <flowRoot
       style="font-style:normal;font-weight:normal;font-size:40px;line-height:1.25;font-family:sans-serif;letter-spacing:0px;word-spacing:0px;fill:#000000;fill-opacity:1;stroke:none"
       id="flowRoot4768"
       xml:space="preserve"><flowRegion
         id="flowRegion4770"><rect
           y="76.680832"
           x="101.82338"
           height="49.497475"
           width="165.81654"
           id="rect4772" /></flowRegion><flowPara
         id="flowPara4774" /></flowRoot>    <g
       id="text4778"
       style="font-style:normal;font-variant:normal;font-weight:normal;font-stretch:normal;font-size:14.11111069px;line-height:1.25;font-family:'HK Grotesk';-inkscape-font-specification:'HK Grotesk, Normal';font-variant-ligatures:normal;font-variant-caps:normal;font-variant-numeric:normal;font-feature-settings:normal;text-align:start;letter-spacing:0px;word-spacing:0px;writing-mode:lr-tb;text-anchor:start;opacity:0.95999995;fill:#000000;fill-opacity:1;stroke:none;stroke-width:0.26458332"
       aria-label="themelio">
      <path
         id="path1068"
         style="font-style:normal;font-variant:normal;font-weight:normal;font-stretch:normal;font-size:11.28888893px;font-family:'HK Grotesk';-inkscape-font-specification:'HK Grotesk, Normal';font-variant-ligatures:normal;font-variant-caps:normal;font-variant-numeric:normal;font-feature-settings:normal;text-align:start;writing-mode:lr-tb;text-anchor:start;opacity:0.95999995;stroke-width:0.26458332;fill:#ffffff"
         d="m 22.017116,29.935677 c 0.30868,0 0.606336,-0.05512 0.777213,-0.110243 l -0.01102,-0.66697 c -0.15434,0.06063 -0.402387,0.132291 -0.644922,0.132291 -0.584288,0 -0.892969,-0.319705 -0.892969,-1.096918 v -3.230122 h 1.543403 v -0.617361 h -1.543403 v -2.127691 l -0.71658,0.534679 v 1.593012 h -0.926041 v 0.617361 h 0.915017 v 3.345877 c 0,1.052821 0.523655,1.626085 1.499306,1.626085 z" />
      <path
         id="path1070"
         style="font-style:normal;font-variant:normal;font-weight:normal;font-stretch:normal;font-size:11.28888893px;font-family:'HK Grotesk';-inkscape-font-specification:'HK Grotesk, Normal';font-variant-ligatures:normal;font-variant-caps:normal;font-variant-numeric:normal;font-feature-settings:normal;text-align:start;writing-mode:lr-tb;text-anchor:start;opacity:0.95999995;stroke-width:0.26458332;fill:#ffffff"
         d="m 24.100709,29.852995 h 0.738629 v -3.141927 c 0,-1.052821 0.567752,-1.785938 1.548915,-1.785938 0.964627,0 1.350477,0.628386 1.350477,1.609549 v 3.318316 h 0.738629 v -3.489193 c -0.02205,-1.190625 -0.63941,-2.105642 -1.923742,-2.105642 -0.727604,0 -1.367014,0.352778 -1.714279,1.02526 v -3.219097 h -0.738629 z" />
      <path
         id="path1072"
         style="font-style:normal;font-variant:normal;font-weight:normal;font-stretch:normal;font-size:11.28888893px;font-family:'HK Grotesk';-inkscape-font-specification:'HK Grotesk, Normal';font-variant-ligatures:normal;font-variant-caps:normal;font-variant-numeric:normal;font-feature-settings:normal;text-align:start;writing-mode:lr-tb;text-anchor:start;opacity:0.95999995;stroke-width:0.26458332;fill:#ffffff"
         d="m 32.429573,29.935677 c 0.887457,0 1.51033,-0.270095 2.127691,-0.915017 l -0.507118,-0.446485 c -0.496094,0.518143 -0.953603,0.700044 -1.615061,0.700044 -1.107943,0 -1.747352,-0.749653 -1.802474,-1.978863 h 4.056945 c 0.02205,-0.08268 0.03858,-0.303168 0.03858,-0.490582 0,-1.091406 -0.589801,-2.546614 -2.386763,-2.546614 -1.604036,0 -2.480468,1.311892 -2.480468,2.866319 0,1.581988 0.909505,2.811198 2.568663,2.811198 z m -1.796962,-3.180512 c 0.09371,-1.102431 0.700044,-1.874132 1.703255,-1.874132 1.091407,0 1.5875,0.782726 1.653646,1.526866 0.01654,0.110243 0.01654,0.231511 0.01102,0.347266 z" />
      <path
         id="path1074"
         style="font-style:normal;font-variant:normal;font-weight:normal;font-stretch:normal;font-size:11.28888893px;font-family:'HK Grotesk';-inkscape-font-specification:'HK Grotesk, Normal';font-variant-ligatures:normal;font-variant-caps:normal;font-variant-numeric:normal;font-feature-settings:normal;text-align:start;writing-mode:lr-tb;text-anchor:start;opacity:0.95999995;stroke-width:0.26458332;fill:#ffffff"
         d="m 36.243982,29.852995 h 0.727604 V 26.5898 c 0,-0.959114 0.578777,-1.648133 1.499306,-1.648133 0.903993,0 1.295356,0.606337 1.295356,1.581988 v 3.32934 h 0.727604 V 26.5898 c 0,-0.959114 0.578776,-1.648133 1.493794,-1.648133 0.937066,0 1.300868,0.63941 1.300868,1.780425 v 3.130903 h 0.727604 v -3.219097 c 0,-1.411111 -0.573264,-2.375738 -1.896181,-2.375738 -0.815798,0 -1.493793,0.413411 -1.81901,1.218186 -0.248047,-0.84336 -0.887457,-1.218186 -1.697743,-1.218186 -0.738629,0 -1.35599,0.341753 -1.659158,1.047309 V 24.346354 H 36.23847 Z" />
      <path
         id="path1076"
         style="font-style:normal;font-variant:normal;font-weight:normal;font-stretch:normal;font-size:11.28888893px;font-family:'HK Grotesk';-inkscape-font-specification:'HK Grotesk, Normal';font-variant-ligatures:normal;font-variant-caps:normal;font-variant-numeric:normal;font-feature-settings:normal;text-align:start;writing-mode:lr-tb;text-anchor:start;opacity:0.95999995;stroke-width:0.26458332;fill:#ffffff"
         d="m 47.973843,29.935677 c 0.887456,0 1.510329,-0.270095 2.12769,-0.915017 l -0.507118,-0.446485 c -0.496093,0.518143 -0.953602,0.700044 -1.61506,0.700044 -1.107943,0 -1.747353,-0.749653 -1.802474,-1.978863 h 4.056944 c 0.02205,-0.08268 0.03858,-0.303168 0.03858,-0.490582 0,-1.091406 -0.5898,-2.546614 -2.386762,-2.546614 -1.604036,0 -2.480469,1.311892 -2.480469,2.866319 0,1.581988 0.909506,2.811198 2.568664,2.811198 z m -1.796962,-3.180512 c 0.09371,-1.102431 0.700043,-1.874132 1.703255,-1.874132 1.091406,0 1.5875,0.782726 1.653646,1.526866 0.01654,0.110243 0.01654,0.231511 0.01102,0.347266 z" />
      <path
         id="path1078"
         style="font-style:normal;font-variant:normal;font-weight:normal;font-stretch:normal;font-size:11.28888893px;font-family:'HK Grotesk';-inkscape-font-specification:'HK Grotesk, Normal';font-variant-ligatures:normal;font-variant-caps:normal;font-variant-numeric:normal;font-feature-settings:normal;text-align:start;writing-mode:lr-tb;text-anchor:start;opacity:0.95999995;stroke-width:0.26458332;fill:#ffffff"
         d="m 52.769417,29.935677 c 0.237023,0 0.534679,-0.03858 0.777214,-0.08819 l -0.01102,-0.622874 c -0.165364,0.03307 -0.330729,0.05512 -0.446484,0.05512 -0.551215,0 -0.606337,-0.352778 -0.606337,-0.777214 v -6.438194 h -0.727604 v 6.625608 c 0,0.777213 0.23151,1.245746 1.014236,1.245746 z" />
      <path
         id="path1080"
         style="font-style:normal;font-variant:normal;font-weight:normal;font-stretch:normal;font-size:11.28888893px;font-family:'HK Grotesk';-inkscape-font-specification:'HK Grotesk, Normal';font-variant-ligatures:normal;font-variant-caps:normal;font-variant-numeric:normal;font-feature-settings:normal;text-align:start;writing-mode:lr-tb;text-anchor:start;opacity:0.95999995;stroke-width:0.26458332;fill:#ffffff"
         d="m 54.808913,23.194314 h 0.760677 v -1.129991 h -0.760677 z m 0.01654,6.658681 h 0.722092 v -5.506641 h -0.722092 z" />
      <path
         id="path1082"
         style="font-style:normal;font-variant:normal;font-weight:normal;font-stretch:normal;font-size:11.28888893px;font-family:'HK Grotesk';-inkscape-font-specification:'HK Grotesk, Normal';font-variant-ligatures:normal;font-variant-caps:normal;font-variant-numeric:normal;font-feature-settings:normal;text-align:start;writing-mode:lr-tb;text-anchor:start;opacity:0.95999995;stroke-width:0.26458332;fill:#ffffff"
         d="m 59.687167,29.935677 c 1.570964,0 2.678907,-1.267795 2.678907,-2.849783 0,-1.570963 -1.107943,-2.827734 -2.678907,-2.827734 -1.565451,0 -2.656857,1.256771 -2.656857,2.827734 0,1.5875 1.091406,2.849783 2.656857,2.849783 z m 0,-0.633897 c -1.190625,0 -1.901692,-0.992188 -1.901692,-2.215886 0,-1.218186 0.711067,-2.188324 1.901692,-2.188324 1.20165,0 1.923742,0.975651 1.923742,2.188324 0,1.218186 -0.722092,2.215886 -1.923742,2.215886 z" />
    </g>
    <rect
       style="fill:#cc58c5;fill-opacity:1;stroke-width:0.18157461"
       y="25.181038"
       x="5.4333496"
       height="1.5591621"
       width="8.5753975"
       id="rect24-7-3" />
    <rect
       style="fill:#cc58a5;fill-opacity:0.73333333;stroke-width:0.16424042"
       y="27.519781"
       x="6.2129316"
       height="1.5591621"
       width="7.0162344"
       id="rect24-7-3-7" />
    <rect
       style="fill:#cc58c5;fill-opacity:0.73333333;stroke-width:0.16424042"
       y="22.842291"
       x="6.2129316"
       height="1.5591621"
       width="7.0162344"
       id="rect24-7-3-7-9" />
    <circle
       r="6.4725957"
       cy="26"
       cx="9.703661"
       id="path4698"
       style="opacity:1;fill:none;fill-opacity:1;stroke:#00a6b3;stroke-width:1.51977897;stroke-linecap:butt;stroke-linejoin:miter;stroke-miterlimit:3.29999995;stroke-dasharray:none;stroke-dashoffset:0;stroke-opacity:1" />
  </g>
</svg>
