<?xml version="1.0" encoding="UTF-8"?>
<svg width="142.48mm" height="34.748mm" version="1.1" viewBox="0 0 142.48 34.748" xmlns="http://www.w3.org/2000/svg" xmlns:cc="http://creativecommons.org/ns#" xmlns:dc="http://purl.org/dc/elements/1.1/" xmlns:rdf="http://www.w3.org/1999/02/22-rdf-syntax-ns#">
 <defs>
  <filter id="filter1843" x="-.00013638" y="-.00010713" width="1.0003" height="1.0002" color-interpolation-filters="sRGB">
   <feGaussianBlur stdDeviation="0.0020417749"/>
  </filter>
 </defs>
 <metadata>
  <rdf:RDF>
   <cc:Work rdf:about="">
    <dc:format>image/svg+xml</dc:format>
    <dc:type rdf:resource="http://purl.org/dc/dcmitype/StillImage"/>
    <dc:title/>
   </cc:Work>
  </rdf:RDF>
 </metadata>
 <g transform="translate(-22.776 -82.626)" filter="url(#filter1843)">
  <g transform="translate(-3.1024e-7 22.094)" fill="#fff" shape-rendering="auto">
   <path d="m39.057 60.574c-5.3652 0.36148-10.534 3.2481-13.449 7.8574-4.0506 6.0324-3.6906 14.49 0.85742 20.156 4.3918 5.7885 12.509 8.1905 19.344 5.7285 6.8926-2.2741 11.8-9.1585 11.697-16.416-2.74e-4 -0.48696-0.02129-0.97376-0.0625-1.459-0.51533-7.2355-5.9835-13.674-13.039-15.357-1.7536-0.46867-3.5616-0.6301-5.3477-0.50976zm0.10352 1.5215c1.63-0.11435 3.2748 0.0261 4.8613 0.45117l0.0098 2e-3 0.01172 0.0039c6.3803 1.5169 11.428 7.4621 11.891 14.004v0.0059l2e-3 0.0059c0.03796 0.44639 0.05664 0.89379 0.05664 1.3418v0.0098c0.09343 6.5575-4.4333 12.911-10.662 14.963l-0.0098 2e-3 -0.01172 0.0039c-6.1791 2.2327-13.677 0.01469-17.645-5.2227l-0.0059-0.0078-0.0078-0.0098c-4.1166-5.1215-4.4475-12.933-0.77931-18.385l0.0059-0.0078 0.0059-0.0098c2.6322-4.1664 7.3873-6.8073 12.277-7.1504z" color="#000000" color-rendering="auto" dominant-baseline="auto" image-rendering="auto" solid-color="#000000" stop-color="#000000" style="font-feature-settings:normal;font-variant-alternates:normal;font-variant-caps:normal;font-variant-east-asian:normal;font-variant-ligatures:normal;font-variant-numeric:normal;font-variant-position:normal;font-variation-settings:normal;inline-size:0;isolation:auto;mix-blend-mode:normal;paint-order:markers stroke fill;shape-margin:0;shape-padding:0;text-decoration-color:#000000;text-decoration-line:none;text-decoration-style:solid;text-indent:0;text-orientation:mixed;text-transform:none;white-space:normal"/>
   <g>
    <path d="m36.156 66.365h-2e-3c-0.5046 0.27745-1.0574 0.60955-1.5254 1.1172l-0.01563 0.01758-0.01563 0.01953c-0.54906 0.67814-0.68013 1.466-0.77148 2.1055-8.9e-5 5.76e-4 8.8e-5 0.0014 0 2e-3 -0.06652 0.43347-0.12312 0.93143-0.03516 1.4688 0.08737 0.60784 0.27374 1.1937 0.53711 1.7363l0.0059 0.01563 0.0078 0.01367c0.35277 0.6532 0.91296 1.1221 1.5176 1.4277 0.5537 0.28564 1.1204 0.39755 1.6797 0.51953-0.31881 0.9468-0.65643 1.8901-1.0781 2.8066l-2e-3 2e-3v2e-3c-0.53564 1.1822-1.1232 2.3523-1.707 3.5371-0.738 1.451-1.4559 2.897-2.2344 4.2949-0.44868 0.80688-0.8866 1.6022-1.3613 2.3555l-0.0039 0.0078-0.0059 0.0098c-0.15816 0.26612-0.38295 0.581-0.55469 1.002l-0.05469 0.13672v0.14648c-2.11e-4 0.23269 0.18332 0.5937 0.40625 0.72656 0.22293 0.13286 0.37124 0.12434 0.46289 0.12695 0.1833 0.0052 0.29008 0.07047-0.0039-0.0332l0.09961 0.0332 0.10352 0.0078c0.34012 0.0218 0.67956 0.04256 1.0195 0.06445l0.44141 0.0293 0.23828-0.375c0.82683-1.2976 1.531-2.6381 2.2461-3.9414l4e-3 -0.0078c0.56657-1.0631 1.0979-2.1338 1.6367-3.1875v-2e-3l2e-3 -2e-3c0.62096-1.2328 1.2276-2.4755 1.8086-3.7324 0.49933-1.0853 0.97919-2.2013 1.3574-3.3711l2e-3 -0.0078c0.02344-0.07037 0.044-0.13739 0.06641-0.20703 2.1776 0.18636 4.3511 0.25488 6.502 0.29688h0.0078c0.63603 0.0059 1.2844 0.02325 1.9473 0.01367l-0.12109-0.0098c0.1658 0.02488 0.39929 0.0036 0.5918-0.10938 0.19251-0.113 0.30141-0.27981 0.35547-0.39648 0.10695-0.23082 0.10083-0.33826 0.09766-0.32812v-0.0039c0.09003-0.36578 0.18146-0.73187 0.27148-1.0977l0.26562-1.084-1.1035 0.16211c-0.49393 0.07313-1.0757 0.02922-1.7324 0.03125-2.1242-0.03032-4.2315-0.08453-6.3223-0.24219 0.21102-0.80274 0.43188-1.6034 0.56836-2.4551 0.08744-0.4558 0.13755-0.93598 0.10547-1.4316-0.03529-0.59077-0.14837-1.2988-0.61133-1.916-0.2817-0.3988-0.66477-0.72104-1.125-0.91211-5.12e-4 -2.15e-4 -0.0014 2.15e-4 -2e-3 0-1.4628-0.53782-2.6051-0.11095-3.9668 0.61719zm3.7051 1.0215c0.05478 0.05237 0.1283 0.07811 0.17188 0.14062l0.0098 0.01367 0.0098 0.01172c0.04634 0.06087 0.04066 0.1972 0.07617 0.27539-0.06379-0.16001-0.14085-0.29654-0.26758-0.44141zm-3.8203 0.54102c-0.0024 0.0017-0.0015 0.0041-0.0039 0.0059-0.0091 0.0072-0.01625 0.01028-0.02539 0.01758zm2.6289 0.34766c0.08296 0.02247 0.16342 0.04883 0.24023 0.07813-0.01903-0.0073 0.02582 0.03456 0.04883 0.19922l4e-3 0.0196c0.08136 0.49496-0.05319 1.0996-0.18359 1.8145-0.1129 0.55472-0.27184 1.1241-0.42188 1.6934-0.34764-0.07606-0.7146-0.13037-1.0156-0.26172-0.26816-0.12767-0.42697-0.26867-0.46094-0.35547l-0.0078-0.02344c-0.127-0.296-0.20921-0.59794-0.23633-0.88672-0.01466-0.29061 0.04364-0.63732 0.125-1.0371 3.24e-4 -0.0015 0.0016-4.76e-4 2e-3 -2e-3 0.05075-0.2298 0.12721-0.34771 0.1543-0.36719l0.01367-0.01172 0.01563-0.01172c0.15215-0.12155 0.35711-0.2436 0.58789-0.38477 0.41985-0.22892 0.79348-0.39827 1.1348-0.46289zm1.7715 0.05273 0.0039 0.01758c-3.23e-4 -0.0023-0.0036-0.0055-0.0039-0.0078-6.01e-4 -0.0037 6.14e-4 -6e-3 0-0.0098zm-4.957 3.6816c0.0013 0.0032 0.0046 0.0027 0.0059 0.0059 2e-3 0.0048 0.0019 0.01085 0.0039 0.01563zm4.0508 1.5391 0.20898 0.13867-0.24024-0.02344zm-0.55664 0.21289 0.32617 0.04687-0.06445 0.20703-0.10157-0.14062c-0.05675-0.07906-0.10197-0.06915-0.16016-0.11328zm-1.0078 1.1855c0.03005 0.0098 0.01976 9.77e-4 0.04492 0.0078 0.01847 0.0033 0.03823 0.01433 0.05664 0.01758z" color="#000000" color-rendering="auto" dominant-baseline="auto" image-rendering="auto" solid-color="#000000" stop-color="#000000" style="font-feature-settings:normal;font-variant-alternates:normal;font-variant-caps:normal;font-variant-east-asian:normal;font-variant-ligatures:normal;font-variant-numeric:normal;font-variant-position:normal;font-variation-settings:normal;inline-size:0;isolation:auto;mix-blend-mode:normal;paint-order:markers stroke fill;shape-margin:0;shape-padding:0;text-decoration-color:#000000;text-decoration-line:none;text-decoration-style:solid;text-indent:0;text-orientation:mixed;text-transform:none;white-space:normal"/>
    <path d="m38.624 66.204c-1.2223 0.20763-2.3435 0.87356-3.2983 1.6388-0.73642 0.78226-0.82186 1.9615-0.81575 2.9843 0.10432 1.2602 0.77712 2.5497 2.0459 2.9596 0.48916 0.47316 2.1012 0.08165 1.867 0.87216-1.0942 3.3365-2.8214 6.415-4.3843 9.5453-0.84478 1.6753-1.8375 3.2715-2.7522 4.9053 0.78713 0.36038 1.73 0.20994 1.9715-0.7799 2.0807-3.652 3.9928-7.4049 5.6904-11.25 0.67301-0.84486 0.3427-3.0401 1.8187-2.5449 2.7303 0.19016 5.4733 0.27291 8.2086 0.24157 0.14597-0.56029 0.77976-1.7157-0.31732-1.3078-2.7983-0.0519-5.6193-0.01798-8.3974-0.33762 0.38403-1.6699 1.0619-3.3732 0.77787-5.1105-0.16487-1.1575-1.2947-1.898-2.4148-1.8159zm0.12622 1.3125c1.1602 0.1133 1.0649 1.5218 0.88596 2.3696-0.17792 1.0501-0.46037 2.0777-0.73213 3.1062-0.96419-0.18894-2.2-0.30044-2.7208-1.2566-0.4369-0.94887-0.39109-2.1297 0.12324-3.0334 0.66837-0.57221 1.5528-1.1165 2.4438-1.1859z" color="#000000" color-rendering="auto" dominant-baseline="auto" image-rendering="auto" solid-color="#000000" stop-color="#000000" style="font-feature-settings:normal;font-variant-alternates:normal;font-variant-caps:normal;font-variant-east-asian:normal;font-variant-ligatures:normal;font-variant-numeric:normal;font-variant-position:normal;font-variation-settings:normal;inline-size:0;isolation:auto;mix-blend-mode:normal;paint-order:markers stroke fill;shape-margin:0;shape-padding:0;text-decoration-color:#000000;text-decoration-line:none;text-decoration-style:solid;text-indent:0;text-orientation:mixed;text-transform:none;white-space:normal"/>
    <path d="m49.428 79.021c-3.3756 0.03612-6.7526-0.02187-10.127 0.08221-0.22549 0.79765-0.43919 1.6124-0.4375 2.4473 1.336-0.22026 2.6956-0.13927 4.0434-0.17737 2.1645-0.01527 4.3291-0.01237 6.4937-0.01016 0.23568-0.7806 0.47135-1.5612 0.70703-2.3418-0.22647-5.1e-5 -0.45294-1.09e-4 -0.67941-1.55e-4zm-0.68164 1.0117c0.0026 0.51314-0.58106 0.26457-0.90814 0.3201-2.5536-0.0018-5.1076-0.01193-7.6605 0.0562-0.31732 0.06515-0.04165-0.4986 0.21065-0.32749 2.7857-0.05299 5.5721-0.02135 8.358-0.04881z" color="#000000" color-rendering="auto" dominant-baseline="auto" image-rendering="auto" solid-color="#000000" stop-color="#000000" style="font-feature-settings:normal;font-variant-alternates:normal;font-variant-caps:normal;font-variant-east-asian:normal;font-variant-ligatures:normal;font-variant-numeric:normal;font-variant-position:normal;font-variation-settings:normal;inline-size:0;isolation:auto;mix-blend-mode:normal;paint-order:markers stroke fill;shape-margin:0;shape-padding:0;text-decoration-color:#000000;text-decoration-line:none;text-decoration-style:solid;text-indent:0;text-orientation:mixed;text-transform:none;white-space:normal"/>
    <path d="m39.369 80.966c1.2663-0.10552 2.5397-0.08158 3.8095-0.09951 1.9493-0.01146 3.8986-0.01088 5.848-0.0078 0.13384-0.44397 0.26768-0.88793 0.40152-1.3319-2.9616 0.01995-5.9235 0.0043-8.8849 0.04433-0.27548 0.02791-0.63016-0.03-0.8525 0.06697-0.10716 0.44264-0.21454 0.88524-0.32155 1.3279z" color="#000000" color-rendering="auto" dominant-baseline="auto" image-rendering="auto" solid-color="#000000" stop-color="#000000" style="font-feature-settings:normal;font-variant-alternates:normal;font-variant-caps:normal;font-variant-east-asian:normal;font-variant-ligatures:normal;font-variant-numeric:normal;font-variant-position:normal;font-variation-settings:normal;inline-size:0;isolation:auto;mix-blend-mode:normal;paint-order:markers stroke fill;shape-margin:0;shape-padding:0;text-decoration-color:#000000;text-decoration-line:none;text-decoration-style:solid;text-indent:0;text-orientation:mixed;text-transform:none;white-space:normal"/>
    <path d="m49.227 82.824c-3.0072 0.02028-6.0148 0.0024-9.0218 0.04803-0.36855 0.0095-0.73681 0.0277-1.1055 0.03418-0.22541 0.79772-0.43928 1.6123-0.4375 2.4473 1.1088-0.19642 2.241-0.14077 3.3618-0.17153 2.3924-0.02221 4.7849-0.01825 7.1773-0.016 0.23503-0.7806 0.47005-1.5612 0.70508-2.3418-0.22647-5e-5 -0.45294-9.9e-5 -0.67941-1.49e-4zm-0.67969 1.0117c-0.06598 0.10313-0.02308 0.35329-0.18986 0.32031-2.7763-2.69e-4 -5.5533-0.01614-8.3289 0.05294-0.29815 0.10469-0.16289-0.14723-0.12777-0.31658 2.3849-0.05873 4.7689-0.02967 7.1491-0.0507 0.49914-0.0014 0.99833-0.0033 1.4974-6e-3z" color="#000000" color-rendering="auto" dominant-baseline="auto" image-rendering="auto" solid-color="#000000" stop-color="#000000" style="font-feature-settings:normal;font-variant-alternates:normal;font-variant-caps:normal;font-variant-east-asian:normal;font-variant-ligatures:normal;font-variant-numeric:normal;font-variant-position:normal;font-variation-settings:normal;inline-size:0;isolation:auto;mix-blend-mode:normal;paint-order:markers stroke fill;shape-margin:0;shape-padding:0;text-decoration-color:#000000;text-decoration-line:none;text-decoration-style:solid;text-indent:0;text-orientation:mixed;text-transform:none;white-space:normal"/>
    <path d="m39.168 84.769c1.2663-0.10571 2.5397-0.08111 3.8095-0.09951 1.9493-0.01146 3.8986-0.01089 5.848-0.0078 0.13384-0.44397 0.26768-0.88793 0.40153-1.3319-2.9616 0.01995-5.9235 0.0043-8.8849 0.04433-0.27548 0.02791-0.63016-0.03-0.8525 0.06697-0.10716 0.44264-0.21454 0.88524-0.32155 1.3279z" color="#000000" color-rendering="auto" dominant-baseline="auto" image-rendering="auto" solid-color="#000000" stop-color="#000000" style="font-feature-settings:normal;font-variant-alternates:normal;font-variant-caps:normal;font-variant-east-asian:normal;font-variant-ligatures:normal;font-variant-numeric:normal;font-variant-position:normal;font-variation-settings:normal;inline-size:0;isolation:auto;mix-blend-mode:normal;paint-order:markers stroke fill;shape-margin:0;shape-padding:0;text-decoration-color:#000000;text-decoration-line:none;text-decoration-style:solid;text-indent:0;text-orientation:mixed;text-transform:none;white-space:normal"/>
   </g>
  </g>
  <g transform="translate(-2.2777 15.12)" fill="#fff" style="shape-inside:url(#rect1863);white-space:pre" aria-label="themelio">
   <path d="m72.532 94.391q-3.2173 0-3.2173-3.5842v-8.636h-2.2296v-2.54h2.2296v-4.5438l2.9351-1.4111v5.9549h3.4149v2.54h-3.4149v7.874q0 1.6369 1.4111 1.6369 1.0442 0 2.1449-0.67733l-0.36689 2.7376q-1.2982 0.64911-2.9069 0.64911z"/>
   <path d="m77.699 94.052v-19.022l2.9351-1.3547v7.3378q1.3547-1.7216 3.7253-1.7216 5.1929 0 5.1929 6.1524v8.6078h-2.9351v-8.6078q0-1.7216-0.79022-2.54-0.79022-0.84667-2.0884-0.84667-3.1044 0-3.1044 3.3302v8.6642z"/>
   <path d="m98.135 94.391q-3.0198 0-4.7978-2.0038-1.7498-2.032-1.7498-5.5598t1.778-5.5316q1.778-2.0038 4.7696-2.0038 2.7093 0 4.4591 1.7216 1.7498 1.7216 1.7498 5.0236 0 1.2136-0.11289 1.8909h-9.7084q0.02822 1.7216 1.1007 2.794 1.1007 1.0724 2.54 1.0724 1.8627 0 2.9916-1.4676l1.9191 1.9756q-1.7498 2.0884-4.9389 2.0884zm-3.6124-8.8335h6.8862q-0.0282-1.8627-0.98778-2.7658-0.95956-0.90311-2.286-0.90311-1.4958 0-2.5118 0.90311-0.98778 0.87489-1.1007 2.7658z"/>
   <path d="m123.31 94.052v-8.636q0-3.3584-2.6529-3.3584-1.2418 0-2.0602 0.93133-0.81844 0.90311-0.81844 2.5682v8.4949h-2.9351v-8.636q0-3.3584-2.6529-3.3584-1.2418 0-2.0602 0.93133-0.81844 0.90311-0.81844 2.5682v8.4949h-2.9351v-14.422h2.9351v1.3264q1.1571-1.6651 3.6407-1.6651 2.6811 0 3.8382 2.0602 1.3264-2.0602 4.2616-2.0602 2.3424 0 3.7536 1.3547 1.4393 1.3547 1.4393 4.0922v9.3133z"/>
   <path d="m134.83 94.391q-3.0198 0-4.7978-2.0038-1.7498-2.032-1.7498-5.5598t1.778-5.5316q1.778-2.0038 4.7696-2.0038 2.7093 0 4.4591 1.7216 1.7498 1.7216 1.7498 5.0236 0 1.2136-0.11289 1.8909h-9.7084q0.0282 1.7216 1.1007 2.794 1.1007 1.0724 2.54 1.0724 1.8627 0 2.9916-1.4676l1.9191 1.9756q-1.7498 2.0884-4.9389 2.0884zm-3.6124-8.8335h6.8862q-0.0282-1.8627-0.98777-2.7658-0.95956-0.90311-2.286-0.90311-1.4958 0-2.5118 0.90311-0.98777 0.87489-1.1007 2.7658z"/>
   <path d="m143.21 94.052v-18.994l2.9351-1.3829v20.376z"/>
   <path d="m151.91 76.865q-0.508 0.508-1.2418 0.508-0.73378 0-1.27-0.508-0.508-0.53622-0.508-1.27t0.508-1.2418q0.53622-0.53622 1.27-0.53622 0.73377 0 1.2418 0.53622 0.53622 0.508 0.53622 1.2418t-0.53622 1.27zm-2.7093 17.187v-14.422h2.9351v14.422z"/>
   <path d="m165.74 92.387q-1.778 2.0038-4.826 2.0038-3.048 0-4.826-2.0038-1.7498-2.0038-1.7498-5.5316t1.7498-5.5316q1.778-2.032 4.826-2.032 3.048 0 4.826 2.032 1.778 2.0038 1.778 5.5316t-1.778 5.5316zm-4.826-0.762q1.6933 0 2.6811-1.27 0.98778-1.27 0.98778-3.4996t-0.98778-3.4996q-0.98777-1.2982-2.6811-1.2982-1.6651 0-2.6529 1.2982-0.98778 1.27-0.98778 3.4996 0 2.2013 0.98778 3.4996 0.98777 1.27 2.6529 1.27z"/>
  </g>
  <text font-family="sans-serif" font-size="28.222px" style="line-height:1.25;shape-inside:url(#rect1873);white-space:pre" xml:space="preserve"/>
 </g>
</svg>
