<?xml version="1.0" encoding="UTF-8" standalone="no"?>
<svg
   xmlns:dc="http://purl.org/dc/elements/1.1/"
   xmlns:cc="http://creativecommons.org/ns#"
   xmlns:rdf="http://www.w3.org/1999/02/22-rdf-syntax-ns#"
   xmlns:svg="http://www.w3.org/2000/svg"
   xmlns="http://www.w3.org/2000/svg"
   width="84.766174mm"
   height="14.45542mm"
   viewBox="0 0 84.766174 14.45542"
   version="1.1"
   id="SVGRoot">
  <defs
     id="defs26" />
  <metadata
     id="metadata29">
    <rdf:RDF>
      <cc:Work
         rdf:about="">
        <dc:format>image/svg+xml</dc:format>
        <dc:type
           rdf:resource="http://purl.org/dc/dcmitype/StillImage" />
        <dc:title></dc:title>
      </cc:Work>
    </rdf:RDF>
  </metadata>
  <g
     id="layer1"
     transform="translate(-2.4759507,-18.772289)">
    <flowRoot
       xml:space="preserve"
       id="flowRoot4768"
       style="font-style:normal;font-weight:normal;font-size:40px;line-height:1.25;font-family:sans-serif;letter-spacing:0px;word-spacing:0px;fill:#000000;fill-opacity:1;stroke:none"><flowRegion
         id="flowRegion4770"><rect
           id="rect4772"
           width="165.81654"
           height="49.497475"
           x="101.82338"
           y="76.680832" /></flowRegion><flowPara
         id="flowPara4774" /></flowRoot>    <g
       aria-label="themelio"
       style="font-style:normal;font-variant:normal;font-weight:normal;font-stretch:normal;font-size:14.11111069px;line-height:1.25;font-family:'HK Grotesk';-inkscape-font-specification:'HK Grotesk, Normal';font-variant-ligatures:normal;font-variant-caps:normal;font-variant-numeric:normal;font-feature-settings:normal;text-align:start;letter-spacing:0px;word-spacing:0px;writing-mode:lr-tb;text-anchor:start;opacity:0.95999995;fill:#000000;fill-opacity:1;stroke:none;stroke-width:0.26458332"
       id="text4778" />
    <rect
       id="rect24-7-3"
       width="8.5753975"
       height="1.5591621"
       x="20.975988"
       y="10.704289"
       style="fill:#2d2d2d;fill-opacity:1;stroke-width:0.18157461"
       transform="rotate(45)" />
    <rect
       id="rect24-7-3-7"
       width="7.0162344"
       height="1.5591621"
       x="21.755571"
       y="13.043033"
       style="fill:#7d7d7d;fill-opacity:1;stroke-width:0.16424042"
       transform="rotate(45)" />
    <rect
       id="rect24-7-3-7-9"
       width="7.0162344"
       height="1.5591621"
       x="21.755571"
       y="8.3655424"
       style="fill:#7d7d7d;fill-opacity:1;stroke-width:0.16424042"
       transform="rotate(45)" />
    <circle
       style="opacity:1;fill:none;fill-opacity:1;stroke:#090909;stroke-width:1.51977897;stroke-linecap:butt;stroke-linejoin:miter;stroke-miterlimit:3.29999995;stroke-dasharray:none;stroke-dashoffset:0;stroke-opacity:1"
       id="path4698"
       cx="25.2463"
       cy="11.523252"
       r="6.4725957"
       transform="rotate(45)" />
  </g>
  <flowRoot
     transform="translate(-0.00477488,-0.00477528)"
     style="font-style:normal;font-variant:normal;font-weight:normal;font-stretch:normal;font-size:32px;line-height:1.25;font-family:U001;-inkscape-font-specification:'U001, Normal';font-variant-ligatures:normal;font-variant-caps:normal;font-variant-numeric:normal;font-feature-settings:normal;text-align:start;letter-spacing:0px;word-spacing:0px;writing-mode:lr-tb;text-anchor:start;fill:#000000;fill-opacity:1;stroke:none"
     id="flowRoot946"
     xml:space="preserve"><flowRegion
       id="flowRegion948"><rect
         y="-66.487381"
         x="35.337791"
         height="48.356976"
         width="219.20058"
         id="rect950" /></flowRegion><flowPara
       id="flowPara952"></flowPara></flowRoot>  <g
     id="text956"
     style="font-style:normal;font-variant:normal;font-weight:normal;font-stretch:normal;font-size:12.69999981px;line-height:1.25;font-family:Inter;-inkscape-font-specification:Inter;font-variant-ligatures:normal;font-variant-caps:normal;font-variant-numeric:normal;font-feature-settings:normal;text-align:start;letter-spacing:0px;word-spacing:0px;writing-mode:lr-tb;text-anchor:start;fill:#000000;fill-opacity:1;stroke:none;stroke-width:0.26458335"
     aria-label="themeliolabs">
    <path
       id="path995"
       style="font-style:normal;font-variant:normal;font-weight:500;font-stretch:normal;font-size:12.69999981px;font-family:'HK Grotesk';-inkscape-font-specification:'HK Grotesk Medium';letter-spacing:-0.27516666px;stroke-width:0.26458335"
       d="m 19.049611,11.652246 c 0.384473,0 0.756543,-0.07441 0.954981,-0.148828 l -0.0062,-0.95498 c -0.179834,0.08061 -0.483692,0.173633 -0.768946,0.173633 -0.570508,0 -0.89917,-0.297657 -0.89917,-1.0790044 V 6.2386233 h 1.674317 V 5.3518558 H 18.330275 V 2.8837894 L 17.29468,3.6403323 v 1.7115235 h -1.035596 v 0.8867675 h 1.023193 v 3.5780761 c 0,1.1658206 0.63252,1.8355466 1.767334,1.8355466 z" />
    <path
       id="path997"
       style="font-style:normal;font-variant:normal;font-weight:500;font-stretch:normal;font-size:12.69999981px;font-family:'HK Grotesk';-inkscape-font-specification:'HK Grotesk Medium';letter-spacing:-0.27516666px;stroke-width:0.26458335"
       d="m 21.093683,11.546826 h 1.066601 V 8.1423831 c 0,-1.1286133 0.576709,-1.9409668 1.63711,-1.9409668 1.023193,0 1.382861,0.6883301 1.382861,1.6805175 v 3.6648922 h 1.066602 V 7.6896975 c -0.0186,-1.3270507 -0.700733,-2.4432617 -2.207618,-2.4432617 -0.750341,0 -1.457275,0.3410645 -1.878955,1.0479981 V 2.7845706 h -1.066601 z" />
    <path
       id="path999"
       style="font-style:normal;font-variant:normal;font-weight:500;font-stretch:normal;font-size:12.69999981px;font-family:'HK Grotesk';-inkscape-font-specification:'HK Grotesk Medium';letter-spacing:-0.27516666px;stroke-width:0.26458335"
       d="m 30.355918,11.652246 c 1.010791,0 1.754932,-0.322461 2.443262,-1.0604 L 32.067442,9.9531252 c -0.514697,0.5457028 -1.023193,0.7441408 -1.705322,0.7441408 -1.15962,0 -1.785938,-0.7441408 -1.866553,-1.9347658 h 4.458642 c 0.02481,-0.093018 0.04961,-0.3410644 0.04961,-0.5705078 0,-1.2774414 -0.675928,-2.9455566 -2.75332,-2.9455566 -1.897559,0 -2.864942,1.5254883 -2.864942,3.2308105 0,1.7425297 1.010791,3.1749997 2.970361,3.1749997 z M 28.495567,7.9935549 c 0.117822,-1.085205 0.700732,-1.8603515 1.74873,-1.8603515 1.041797,0 1.5875,0.7007324 1.69292,1.4696777 0.02481,0.1240234 0.02481,0.2542481 0.02481,0.3906738 z" />
    <path
       id="path1001"
       style="font-style:normal;font-variant:normal;font-weight:500;font-stretch:normal;font-size:12.69999981px;font-family:'HK Grotesk';-inkscape-font-specification:'HK Grotesk Medium';letter-spacing:-0.27516666px;stroke-width:0.26458335"
       d="m 34.278946,11.546826 h 1.054199 V 7.9625491 c 0,-0.9921875 0.589111,-1.7363281 1.556494,-1.7363281 0.936377,0 1.308447,0.6573242 1.308447,1.6371093 v 3.6834957 h 1.047998 V 7.9625491 c 0,-0.9921875 0.595313,-1.7363281 1.550293,-1.7363281 0.967383,0 1.314648,0.6821289 1.314648,1.7921386 v 3.5284664 h 1.0542 V 7.8943362 c 0,-1.4944824 -0.651123,-2.6479004 -2.164209,-2.6479004 -0.868164,0 -1.618506,0.4030762 -2.027783,1.2774414 -0.303858,-0.9115722 -1.041797,-1.2774414 -1.878955,-1.2774414 -0.768946,0 -1.444874,0.322461 -1.804541,1.0790039 V 5.3518558 h -1.016993 z" />
    <path
       id="path1003"
       style="font-style:normal;font-variant:normal;font-weight:500;font-stretch:normal;font-size:12.69999981px;font-family:'HK Grotesk';-inkscape-font-specification:'HK Grotesk Medium';letter-spacing:-0.27516666px;stroke-width:0.26458335"
       d="m 47.268083,11.652246 c 1.010791,0 1.754932,-0.322461 2.443262,-1.0604 L 48.979607,9.9531252 c -0.514698,0.5457028 -1.023194,0.7441408 -1.705323,0.7441408 -1.159619,0 -1.785937,-0.7441408 -1.866552,-1.9347658 h 4.458642 c 0.02481,-0.093018 0.04961,-0.3410644 0.04961,-0.5705078 0,-1.2774414 -0.675927,-2.9455566 -2.75332,-2.9455566 -1.897558,0 -2.864941,1.5254883 -2.864941,3.2308105 0,1.7425297 1.010791,3.1749997 2.970361,3.1749997 z M 45.407732,7.9935549 c 0.117822,-1.085205 0.700732,-1.8603515 1.74873,-1.8603515 1.041797,0 1.5875,0.7007324 1.69292,1.4696777 0.02481,0.1240234 0.02481,0.2542481 0.02481,0.3906738 z" />
    <path
       id="path1005"
       style="font-style:normal;font-variant:normal;font-weight:500;font-stretch:normal;font-size:12.69999981px;font-family:'HK Grotesk';-inkscape-font-specification:'HK Grotesk Medium';letter-spacing:-0.27516666px;stroke-width:0.26458335"
       d="m 52.304529,11.652246 c 0.297656,0 0.669727,-0.04961 0.954981,-0.111621 l -0.0062,-0.886767 c -0.179834,0.03101 -0.353466,0.04961 -0.47749,0.04961 -0.508496,0 -0.613916,-0.303857 -0.613916,-0.7193359 V 2.7845706 h -1.054199 v 7.4786134 c 0,0.948779 0.37207,1.389062 1.196826,1.389062 z" />
    <path
       id="path1007"
       style="font-style:normal;font-variant:normal;font-weight:500;font-stretch:normal;font-size:12.69999981px;font-family:'HK Grotesk';-inkscape-font-specification:'HK Grotesk Medium';letter-spacing:-0.27516666px;stroke-width:0.26458335"
       d="m 54.317596,4.0992191 h 1.097607 V 2.7845706 h -1.097607 z m 0.02481,7.4476069 h 1.047998 V 5.3518558 h -1.047998 z" />
    <path
       id="path1009"
       style="font-style:normal;font-variant:normal;font-weight:500;font-stretch:normal;font-size:12.69999981px;font-family:'HK Grotesk';-inkscape-font-specification:'HK Grotesk Medium';letter-spacing:-0.27516666px;stroke-width:0.26458335"
       d="m 59.685495,11.652246 c 1.816944,0 3.063379,-1.444873 3.063379,-3.2184079 0,-1.7611328 -1.246435,-3.1874023 -3.063379,-3.1874023 -1.816943,0 -3.050976,1.4262695 -3.050976,3.1874023 0,1.7735349 1.234033,3.2184079 3.050976,3.2184079 z m 0,-0.911572 c -1.27124,0 -1.95957,-1.047998 -1.95957,-2.3068359 0,-1.2526367 0.68833,-2.27583 1.95957,-2.27583 1.277442,0 1.971973,1.0293945 1.971973,2.27583 0,1.2526367 -0.694531,2.3068359 -1.971973,2.3068359 z" />
    <path
       id="path1011"
       style="font-style:normal;font-variant:normal;font-weight:bold;font-stretch:normal;font-size:12.69999981px;font-family:'HK Grotesk';-inkscape-font-specification:'HK Grotesk Bold';letter-spacing:-0.27516666px"
       d="m 65.127809,11.67085 c 0.359668,0 0.812353,-0.06201 1.128613,-0.124024 v -1.27124 c -0.16123,0.0248 -0.328662,0.03721 -0.415479,0.03721 -0.303857,0 -0.496093,-0.124023 -0.496093,-0.4154783 V 2.7845706 h -1.513086 v 7.5282224 c 0,1.091406 0.58291,1.358057 1.296045,1.358057 z" />
    <path
       id="path1013"
       style="font-style:normal;font-variant:normal;font-weight:bold;font-stretch:normal;font-size:12.69999981px;font-family:'HK Grotesk';-inkscape-font-specification:'HK Grotesk Bold';letter-spacing:-0.27516666px"
       d="m 69.4043,5.2216311 c -1.221631,0 -2.009179,0.5457032 -2.604492,1.3580567 l 1.159619,0.8371582 c 0.266651,-0.4526856 0.744141,-0.8743653 1.457276,-0.8743653 0.985986,0 1.258837,0.3906739 1.289843,1.3084473 h -1.680517 c -1.389063,0 -2.468067,0.4464843 -2.468067,1.7921386 0,1.2960454 0.979786,2.0277834 2.251026,2.0277834 0.706933,0 1.531689,-0.310059 1.934765,-0.948779 l 0.09302,0.824755 h 1.246435 V 7.7889163 c 0,-1.513086 -0.992187,-2.5672852 -2.678906,-2.5672852 z m -0.291455,5.1717769 c -0.675928,0 -1.00459,-0.291455 -1.00459,-0.700732 0,-0.3906738 0.31626,-0.7503418 1.00459,-0.7503418 h 1.599903 v 0.049609 c -0.09302,0.7317383 -0.669727,1.4014644 -1.599903,1.4014644 z" />
    <path
       id="path1015"
       style="font-style:normal;font-variant:normal;font-weight:bold;font-stretch:normal;font-size:12.69999981px;font-family:'HK Grotesk';-inkscape-font-specification:'HK Grotesk Bold';letter-spacing:-0.27516666px"
       d="m 76.756576,11.67085 c 1.717725,0 2.654102,-1.506885 2.654102,-3.2246095 0,-1.7239258 -0.936377,-3.2246094 -2.678907,-3.2246094 -0.663525,0 -1.308447,0.2170411 -1.742529,0.7503418 V 2.7845706 h -1.562695 v 8.7622554 h 1.562695 v -0.620117 c 0.434082,0.533301 1.122412,0.744141 1.767334,0.744141 z m -0.378271,-1.395264 c -1.041797,0 -1.525489,-0.7875487 -1.525489,-1.8293455 0,-1.0417969 0.483692,-1.8541504 1.525489,-1.8541504 1.041796,0 1.506884,0.8247559 1.506884,1.8541504 0,1.0293945 -0.465088,1.8293455 -1.506884,1.8293455 z" />
    <path
       id="path1017"
       style="font-style:normal;font-variant:normal;font-weight:bold;font-stretch:normal;font-size:12.69999981px;font-family:'HK Grotesk';-inkscape-font-specification:'HK Grotesk Bold';letter-spacing:-0.27516666px"
       d="m 82.298107,11.67085 c 1.172022,0 2.418457,-0.63252 2.418457,-2.0649904 0,-2.27583 -3.150195,-1.7177246 -3.150195,-2.6541015 0,-0.2914551 0.303858,-0.5333008 0.799951,-0.5333008 0.669727,0 1.016993,0.4030762 1.227832,0.7875488 L 84.766174,6.5672854 C 84.294885,5.7301272 83.482531,5.2216311 82.41593,5.2216311 c -1.196826,0 -2.300635,0.6201172 -2.300635,1.9285645 0,2.1890136 3.112988,1.4882812 3.112988,2.5300781 0,0.3286623 -0.303857,0.7379393 -1.00459,0.7379393 -0.824755,0 -1.153418,-0.5705077 -1.320849,-1.0169921 l -1.203027,0.5333008 c 0.303857,0.9549803 1.296044,1.7363283 2.59829,1.7363283 z" />
  </g>
</svg>
